name rise44.9368peak50.754fall52.0217.mot
datacolumns 19
datarows 36
range 13.72328900000000 13.78161600000000
endheader
time	ground_force1_vx	ground_force1_vy	ground_force1_vz	ground_force1_px	ground_force1_py	ground_force1_pz	ground_force2_vx	ground_force2_vy	ground_force2_vz	ground_force2_px	ground_force2_py	ground_force2_pz	ground_torque1_x	ground_torque1_y	ground_torque1_z	ground_torque2_x	ground_torque2_y	ground_torque2_z	
13.72328900000000	48.76779900000000	747.57823599999995	70.13947400000001	0.38017100000000	0.00000000000000	0.13868000000000	0.00000000000000	0.00000000000000	0.00000000000000	0.00000000000000	0.00000000000000	0.00000000000000	0.00000000000000	37.20404900000000	0.00000000000000	0.00000000000000	0.00000000000000	0.00000000000000	
13.72495600000000	48.02174800000000	749.82594200000005	70.20243700000000	0.37857500000000	0.00000000000000	0.13864600000000	0.00000000000000	0.00000000000000	0.00000000000000	0.00000000000000	0.00000000000000	0.00000000000000	0.00000000000000	37.23774200000000	0.00000000000000	0.00000000000000	0.00000000000000	0.00000000000000	
13.72662300000000	47.27535800000000	752.00386700000001	70.26463900000000	0.37698700000000	0.00000000000000	0.13861200000000	0.00000000000000	0.00000000000000	0.00000000000000	0.00000000000000	0.00000000000000	0.00000000000000	0.00000000000000	37.27192900000000	0.00000000000000	0.00000000000000	0.00000000000000	0.00000000000000	
13.72829000000000	46.52966300000000	754.11048500000004	70.32610099999999	0.37540700000000	0.00000000000000	0.13857900000000	0.00000000000000	0.00000000000000	0.00000000000000	0.00000000000000	0.00000000000000	0.00000000000000	0.00000000000000	37.30657800000000	0.00000000000000	0.00000000000000	0.00000000000000	0.00000000000000	
13.72994800000000	45.78563900000000	756.14418899999998	70.38677600000000	0.37383800000000	0.00000000000000	0.13854600000000	0.00000000000000	0.00000000000000	0.00000000000000	0.00000000000000	0.00000000000000	0.00000000000000	0.00000000000000	37.34161500000000	0.00000000000000	0.00000000000000	0.00000000000000	0.00000000000000	
13.73161500000000	45.04420500000000	758.10330899999997	70.44655200000000	0.37228300000000	0.00000000000000	0.13851400000000	0.00000000000000	0.00000000000000	0.00000000000000	0.00000000000000	0.00000000000000	0.00000000000000	0.00000000000000	37.37692700000000	0.00000000000000	0.00000000000000	0.00000000000000	0.00000000000000	
13.73328700000000	44.30622400000000	759.98612700000001	70.50525500000001	0.37074200000000	0.00000000000000	0.13848100000000	0.00000000000000	0.00000000000000	0.00000000000000	0.00000000000000	0.00000000000000	0.00000000000000	0.00000000000000	37.41235900000000	0.00000000000000	0.00000000000000	0.00000000000000	0.00000000000000	
13.73495200000000	43.57250200000000	761.79089499999998	70.56265000000000	0.36921700000000	0.00000000000000	0.13844800000000	0.00000000000000	0.00000000000000	0.00000000000000	0.00000000000000	0.00000000000000	0.00000000000000	0.00000000000000	37.44772400000000	0.00000000000000	0.00000000000000	0.00000000000000	0.00000000000000	
13.73661500000000	42.84378900000000	763.51585000000000	70.61844900000000	0.36771000000000	0.00000000000000	0.13841500000000	0.00000000000000	0.00000000000000	0.00000000000000	0.00000000000000	0.00000000000000	0.00000000000000	0.00000000000000	37.48279900000000	0.00000000000000	0.00000000000000	0.00000000000000	0.00000000000000	
13.73828100000000	42.12077800000000	765.15923299999997	70.67231000000000	0.36622300000000	0.00000000000000	0.13838200000000	0.00000000000000	0.00000000000000	0.00000000000000	0.00000000000000	0.00000000000000	0.00000000000000	0.00000000000000	37.51733200000000	0.00000000000000	0.00000000000000	0.00000000000000	0.00000000000000	
13.73995100000000	41.40410800000000	766.71930299999997	70.72384500000000	0.36475600000000	0.00000000000000	0.13834800000000	0.00000000000000	0.00000000000000	0.00000000000000	0.00000000000000	0.00000000000000	0.00000000000000	0.00000000000000	37.55104200000000	0.00000000000000	0.00000000000000	0.00000000000000	0.00000000000000	
13.74162000000000	40.69436400000000	768.19435399999998	70.77262300000000	0.36331200000000	0.00000000000000	0.13831300000000	0.00000000000000	0.00000000000000	0.00000000000000	0.00000000000000	0.00000000000000	0.00000000000000	0.00000000000000	37.58362500000000	0.00000000000000	0.00000000000000	0.00000000000000	0.00000000000000	
13.74328600000000	39.99207800000000	769.58273299999996	70.81817400000000	0.36189000000000	0.00000000000000	0.13827800000000	0.00000000000000	0.00000000000000	0.00000000000000	0.00000000000000	0.00000000000000	0.00000000000000	0.00000000000000	37.61475400000000	0.00000000000000	0.00000000000000	0.00000000000000	0.00000000000000	
13.74495600000000	39.29773000000000	770.88285199999996	70.85999500000000	0.36049300000000	0.00000000000000	0.13824100000000	0.00000000000000	0.00000000000000	0.00000000000000	0.00000000000000	0.00000000000000	0.00000000000000	0.00000000000000	37.64408400000000	0.00000000000000	0.00000000000000	0.00000000000000	0.00000000000000	
13.74661500000000	38.61175100000000	772.09320700000001	70.89755300000000	0.35912200000000	0.00000000000000	0.13820400000000	0.00000000000000	0.00000000000000	0.00000000000000	0.00000000000000	0.00000000000000	0.00000000000000	0.00000000000000	37.67125200000000	0.00000000000000	0.00000000000000	0.00000000000000	0.00000000000000	
13.74828900000000	37.93452200000000	773.21239000000003	70.93029199999999	0.35777600000000	0.00000000000000	0.13816500000000	0.00000000000000	0.00000000000000	0.00000000000000	0.00000000000000	0.00000000000000	0.00000000000000	0.00000000000000	37.69588700000000	0.00000000000000	0.00000000000000	0.00000000000000	0.00000000000000	
13.74995400000000	37.26637800000000	774.23910500000000	70.95763500000000	0.35645800000000	0.00000000000000	0.13812500000000	0.00000000000000	0.00000000000000	0.00000000000000	0.00000000000000	0.00000000000000	0.00000000000000	0.00000000000000	37.71760400000000	0.00000000000000	0.00000000000000	0.00000000000000	0.00000000000000	
13.75161500000000	36.60760900000000	775.17218000000003	70.97899500000000	0.35516600000000	0.00000000000000	0.13808400000000	0.00000000000000	0.00000000000000	0.00000000000000	0.00000000000000	0.00000000000000	0.00000000000000	0.00000000000000	37.73601400000000	0.00000000000000	0.00000000000000	0.00000000000000	0.00000000000000	
13.75328600000000	35.95846200000000	776.01057900000001	70.99377100000000	0.35390300000000	0.00000000000000	0.13804000000000	0.00000000000000	0.00000000000000	0.00000000000000	0.00000000000000	0.00000000000000	0.00000000000000	0.00000000000000	37.75072300000000	0.00000000000000	0.00000000000000	0.00000000000000	0.00000000000000	
13.75495400000000	35.31914200000000	776.75341400000002	71.00136300000000	0.35266900000000	0.00000000000000	0.13799500000000	0.00000000000000	0.00000000000000	0.00000000000000	0.00000000000000	0.00000000000000	0.00000000000000	0.00000000000000	37.76133800000000	0.00000000000000	0.00000000000000	0.00000000000000	0.00000000000000	
13.75661900000000	34.68981700000000	777.39995799999997	71.00116700000000	0.35146300000000	0.00000000000000	0.13794800000000	0.00000000000000	0.00000000000000	0.00000000000000	0.00000000000000	0.00000000000000	0.00000000000000	0.00000000000000	37.76746500000000	0.00000000000000	0.00000000000000	0.00000000000000	0.00000000000000	
13.75828700000000	34.07061700000000	777.94965100000002	70.99258700000000	0.35028600000000	0.00000000000000	0.13789900000000	0.00000000000000	0.00000000000000	0.00000000000000	0.00000000000000	0.00000000000000	0.00000000000000	0.00000000000000	37.76871800000000	0.00000000000000	0.00000000000000	0.00000000000000	0.00000000000000	
13.75995100000000	33.46163700000000	778.40211199999999	70.97503900000000	0.34913700000000	0.00000000000000	0.13784800000000	0.00000000000000	0.00000000000000	0.00000000000000	0.00000000000000	0.00000000000000	0.00000000000000	0.00000000000000	37.76471700000000	0.00000000000000	0.00000000000000	0.00000000000000	0.00000000000000	
13.76161600000000	32.86294000000000	778.75714300000004	70.94795100000000	0.34801800000000	0.00000000000000	0.13779500000000	0.00000000000000	0.00000000000000	0.00000000000000	0.00000000000000	0.00000000000000	0.00000000000000	0.00000000000000	37.75509000000000	0.00000000000000	0.00000000000000	0.00000000000000	0.00000000000000	
13.76328200000000	32.27456000000000	779.01474099999996	70.91077100000000	0.34692800000000	0.00000000000000	0.13773900000000	0.00000000000000	0.00000000000000	0.00000000000000	0.00000000000000	0.00000000000000	0.00000000000000	0.00000000000000	37.73948100000000	0.00000000000000	0.00000000000000	0.00000000000000	0.00000000000000	
13.76494900000000	31.69650300000000	779.17509800000005	70.86297000000000	0.34586600000000	0.00000000000000	0.13768100000000	0.00000000000000	0.00000000000000	0.00000000000000	0.00000000000000	0.00000000000000	0.00000000000000	0.00000000000000	37.71754600000000	0.00000000000000	0.00000000000000	0.00000000000000	0.00000000000000	
13.76661600000000	31.12874800000000	779.23860900000000	70.80404799999999	0.34483200000000	0.00000000000000	0.13762100000000	0.00000000000000	0.00000000000000	0.00000000000000	0.00000000000000	0.00000000000000	0.00000000000000	0.00000000000000	37.68895700000000	0.00000000000000	0.00000000000000	0.00000000000000	0.00000000000000	
13.76828400000000	30.57125300000000	779.20587300000000	70.73353200000000	0.34382500000000	0.00000000000000	0.13755800000000	0.00000000000000	0.00000000000000	0.00000000000000	0.00000000000000	0.00000000000000	0.00000000000000	0.00000000000000	37.65340600000000	0.00000000000000	0.00000000000000	0.00000000000000	0.00000000000000	
13.76994800000000	30.02395200000000	779.07769800000005	70.65098800000000	0.34284600000000	0.00000000000000	0.13749200000000	0.00000000000000	0.00000000000000	0.00000000000000	0.00000000000000	0.00000000000000	0.00000000000000	0.00000000000000	37.61060600000000	0.00000000000000	0.00000000000000	0.00000000000000	0.00000000000000	
13.77161500000000	29.48676200000000	778.85509900000000	70.55601500000000	0.34189300000000	0.00000000000000	0.13742300000000	0.00000000000000	0.00000000000000	0.00000000000000	0.00000000000000	0.00000000000000	0.00000000000000	0.00000000000000	37.56029000000000	0.00000000000000	0.00000000000000	0.00000000000000	0.00000000000000	
13.77328500000000	28.95958300000000	778.53929800000003	70.44825400000001	0.34096600000000	0.00000000000000	0.13735200000000	0.00000000000000	0.00000000000000	0.00000000000000	0.00000000000000	0.00000000000000	0.00000000000000	0.00000000000000	37.50221500000000	0.00000000000000	0.00000000000000	0.00000000000000	0.00000000000000	
13.77494800000000	28.44229900000000	778.13172699999996	70.32738800000000	0.34006400000000	0.00000000000000	0.13727900000000	0.00000000000000	0.00000000000000	0.00000000000000	0.00000000000000	0.00000000000000	0.00000000000000	0.00000000000000	37.43616300000000	0.00000000000000	0.00000000000000	0.00000000000000	0.00000000000000	
13.77661700000000	27.93478400000000	777.63401899999997	70.19314400000000	0.33918600000000	0.00000000000000	0.13720200000000	0.00000000000000	0.00000000000000	0.00000000000000	0.00000000000000	0.00000000000000	0.00000000000000	0.00000000000000	37.36194400000000	0.00000000000000	0.00000000000000	0.00000000000000	0.00000000000000	
13.77828200000000	27.43689700000000	777.04801099999997	70.04529800000000	0.33833000000000	0.00000000000000	0.13712300000000	0.00000000000000	0.00000000000000	0.00000000000000	0.00000000000000	0.00000000000000	0.00000000000000	0.00000000000000	37.27939100000000	0.00000000000000	0.00000000000000	0.00000000000000	0.00000000000000	
13.77995200000000	26.94849100000000	776.37573699999996	69.88367100000001	0.33749700000000	0.00000000000000	0.13704000000000	0.00000000000000	0.00000000000000	0.00000000000000	0.00000000000000	0.00000000000000	0.00000000000000	0.00000000000000	37.18836800000000	0.00000000000000	0.00000000000000	0.00000000000000	0.00000000000000	
13.78161600000000	26.46941000000000	775.61942099999999	69.70813400000000	0.33668500000000	0.00000000000000	0.13695500000000	0.00000000000000	0.00000000000000	0.00000000000000	0.00000000000000	0.00000000000000	0.00000000000000	0.00000000000000	37.08876500000000	0.00000000000000	0.00000000000000	0.00000000000000	0.00000000000000	
